<svg width="1921" height="839" viewBox="0 0 1921 839" fill="none" xmlns="http://www.w3.org/2000/svg">
    <path d="M1640.18 599.95C1685.85 611.504 1744.93 626.45 1814.76 615.233C1846.86 610.051 1882.64 599.049 1920.92 577.465L1920.96 812.522C1893.97 821.799 1867.45 828.263 1841.63 832.421C1737.02 849.263 1649.58 827.02 1602.42 815.022L1602.18 814.962L1598.58 814.005C1484.69 785.043 1371.71 695.264 1320.17 637.953L1065.86 358.456C1031.47 320.189 948.841 256.739 879.321 239.028L879.204 238.998C833.537 227.445 774.46 212.499 704.655 223.746C637.351 234.576 553.912 271.004 465.247 376.646L269.182 610.25C179.845 716.691 87.9943 776.728 0.956163 807.367L0.956193 571.546C41.9013 547.886 85.6328 512.071 130.709 458.364L326.774 224.76C445.047 83.8427 567.67 24.2236 677.763 6.52725C782.446 -10.3603 869.948 11.9417 917.107 23.9613L917.207 23.9869L920.782 24.9145C1034.67 53.8761 1147.65 143.655 1199.19 200.966L1453.53 480.493C1487.91 518.76 1570.55 582.21 1640.07 599.921L1640.18 599.95Z" fill="#F8F8F8"/>
</svg>
